<?xml version="1.0" encoding="UTF-8" standalone="no"?>
<!DOCTYPE svg PUBLIC "-//W3C//DTD SVG 1.1//EN"
 "http://www.w3.org/Graphics/SVG/1.1/DTD/svg11.dtd">
<!-- Generated by graphviz version 2.42.4 (0)
 -->
<!-- Title: G Pages: 1 -->
<svg width="545pt" height="763pt"
 viewBox="0.00 0.00 545.27 763.00" xmlns="http://www.w3.org/2000/svg" xmlns:xlink="http://www.w3.org/1999/xlink">
<g id="graph0" class="graph" transform="scale(1 1) rotate(0) translate(4 759)">
<title>G</title>
<polygon fill="white" stroke="transparent" points="-4,4 -4,-759 541.27,-759 541.27,4 -4,4"/>
<text text-anchor="middle" x="268.64" y="-7.8" font-family="Times,serif" font-size="14.00">Actor Network</text>
<g id="clust1" class="cluster">
<title>cluster_input</title>
<polygon fill="none" stroke="black" points="8,-219 8,-558 112.39,-558 112.39,-219 8,-219"/>
<text text-anchor="middle" x="60.2" y="-226.8" font-family="Times,serif" font-size="14.00">Input Layer</text>
</g>
<g id="clust2" class="cluster">
<title>cluster_hidden1</title>
<polygon fill="none" stroke="black" points="132.39,-31 132.39,-747 259.29,-747 259.29,-31 132.39,-31"/>
<text text-anchor="middle" x="195.84" y="-38.8" font-family="Times,serif" font-size="14.00">Hidden Layer 1</text>
</g>
<g id="clust3" class="cluster">
<title>cluster_hidden2</title>
<polygon fill="none" stroke="black" points="279.29,-31 279.29,-747 406.18,-747 406.18,-31 279.29,-31"/>
<text text-anchor="middle" x="342.73" y="-38.8" font-family="Times,serif" font-size="14.00">Hidden Layer 2</text>
</g>
<g id="clust4" class="cluster">
<title>cluster_output</title>
<polygon fill="none" stroke="black" points="426.18,-293 426.18,-489 537.27,-489 537.27,-293 426.18,-293"/>
<text text-anchor="middle" x="481.73" y="-300.8" font-family="Times,serif" font-size="14.00">Output Layer</text>
</g>
<!-- i2 -->
<g id="node1" class="node">
<title>i2</title>
<ellipse fill="none" stroke="black" cx="60.2" cy="-400" rx="44.39" ry="44.39"/>
<text text-anchor="middle" x="60.2" y="-396.3" font-family="Times,serif" font-size="14.00">Input 2</text>
</g>
<!-- h1_1 -->
<g id="node4" class="node">
<title>h1_1</title>
<ellipse fill="none" stroke="black" cx="195.84" cy="-705" rx="34.39" ry="34.39"/>
<text text-anchor="middle" x="195.84" y="-701.3" font-family="Times,serif" font-size="14.00">H1_1</text>
</g>
<!-- i2&#45;&gt;h1_1 -->
<g id="edge9" class="edge">
<title>i2&#45;&gt;h1_1</title>
<path fill="none" stroke="black" d="M78.8,-440.19C104.32,-498.41 151.31,-605.66 176.97,-664.22"/>
<polygon fill="black" stroke="black" points="173.83,-665.77 181.05,-673.53 180.24,-662.96 173.83,-665.77"/>
</g>
<!-- h1_2 -->
<g id="node5" class="node">
<title>h1_2</title>
<ellipse fill="none" stroke="black" cx="195.84" cy="-618" rx="34.39" ry="34.39"/>
<text text-anchor="middle" x="195.84" y="-614.3" font-family="Times,serif" font-size="14.00">H1_2</text>
</g>
<!-- i2&#45;&gt;h1_2 -->
<g id="edge10" class="edge">
<title>i2&#45;&gt;h1_2</title>
<path fill="none" stroke="black" d="M84.17,-437.48C108.66,-477.43 147.22,-540.33 171.76,-580.35"/>
<polygon fill="black" stroke="black" points="168.86,-582.32 177.07,-589.02 174.83,-578.66 168.86,-582.32"/>
</g>
<!-- h1_3 -->
<g id="node6" class="node">
<title>h1_3</title>
<ellipse fill="none" stroke="black" cx="195.84" cy="-531" rx="34.39" ry="34.39"/>
<text text-anchor="middle" x="195.84" y="-527.3" font-family="Times,serif" font-size="14.00">H1_3</text>
</g>
<!-- i2&#45;&gt;h1_3 -->
<g id="edge11" class="edge">
<title>i2&#45;&gt;h1_3</title>
<path fill="none" stroke="black" d="M92.53,-430.71C113.79,-451.55 141.79,-479 163.13,-499.91"/>
<polygon fill="black" stroke="black" points="160.78,-502.52 170.37,-507.02 165.68,-497.52 160.78,-502.52"/>
</g>
<!-- h1_4 -->
<g id="node7" class="node">
<title>h1_4</title>
<ellipse fill="none" stroke="black" cx="195.84" cy="-444" rx="34.39" ry="34.39"/>
<text text-anchor="middle" x="195.84" y="-440.3" font-family="Times,serif" font-size="14.00">H1_4</text>
</g>
<!-- i2&#45;&gt;h1_4 -->
<g id="edge12" class="edge">
<title>i2&#45;&gt;h1_4</title>
<path fill="none" stroke="black" d="M102.38,-413.56C118.52,-418.87 137,-424.96 153.18,-430.28"/>
<polygon fill="black" stroke="black" points="152.32,-433.68 162.91,-433.49 154.51,-427.04 152.32,-433.68"/>
</g>
<!-- h1_5 -->
<g id="node8" class="node">
<title>h1_5</title>
<ellipse fill="none" stroke="black" cx="195.84" cy="-357" rx="34.39" ry="34.39"/>
<text text-anchor="middle" x="195.84" y="-353.3" font-family="Times,serif" font-size="14.00">H1_5</text>
</g>
<!-- i2&#45;&gt;h1_5 -->
<g id="edge13" class="edge">
<title>i2&#45;&gt;h1_5</title>
<path fill="none" stroke="black" d="M102.38,-386.75C118.52,-381.56 137,-375.61 153.18,-370.41"/>
<polygon fill="black" stroke="black" points="154.46,-373.67 162.91,-367.27 152.32,-367 154.46,-373.67"/>
</g>
<!-- h1_6 -->
<g id="node9" class="node">
<title>h1_6</title>
<ellipse fill="none" stroke="black" cx="195.84" cy="-270" rx="34.39" ry="34.39"/>
<text text-anchor="middle" x="195.84" y="-266.3" font-family="Times,serif" font-size="14.00">H1_6</text>
</g>
<!-- i2&#45;&gt;h1_6 -->
<g id="edge14" class="edge">
<title>i2&#45;&gt;h1_6</title>
<path fill="none" stroke="black" d="M92.53,-369.52C113.79,-348.84 141.79,-321.6 163.13,-300.85"/>
<polygon fill="black" stroke="black" points="165.65,-303.28 170.37,-293.8 160.76,-298.26 165.65,-303.28"/>
</g>
<!-- h1_7 -->
<g id="node10" class="node">
<title>h1_7</title>
<ellipse fill="none" stroke="black" cx="195.84" cy="-183" rx="34.39" ry="34.39"/>
<text text-anchor="middle" x="195.84" y="-179.3" font-family="Times,serif" font-size="14.00">H1_7</text>
</g>
<!-- i2&#45;&gt;h1_7 -->
<g id="edge15" class="edge">
<title>i2&#45;&gt;h1_7</title>
<path fill="none" stroke="black" d="M84.17,-362.7C108.59,-323.04 147.01,-260.67 171.55,-220.82"/>
<polygon fill="black" stroke="black" points="174.6,-222.53 176.87,-212.18 168.64,-218.86 174.6,-222.53"/>
</g>
<!-- h1_8 -->
<g id="node11" class="node">
<title>h1_8</title>
<ellipse fill="none" stroke="black" cx="195.84" cy="-96" rx="34.39" ry="34.39"/>
<text text-anchor="middle" x="195.84" y="-92.3" font-family="Times,serif" font-size="14.00">H1_8</text>
</g>
<!-- i2&#45;&gt;h1_8 -->
<g id="edge16" class="edge">
<title>i2&#45;&gt;h1_8</title>
<path fill="none" stroke="black" d="M78.94,-359.63C104.5,-301.49 151.41,-194.8 177.01,-136.55"/>
<polygon fill="black" stroke="black" points="180.26,-137.86 181.08,-127.3 173.85,-135.04 180.26,-137.86"/>
</g>
<!-- i3 -->
<g id="node2" class="node">
<title>i3</title>
<ellipse fill="none" stroke="black" cx="60.2" cy="-294" rx="44.39" ry="44.39"/>
<text text-anchor="middle" x="60.2" y="-290.3" font-family="Times,serif" font-size="14.00">Input 3</text>
</g>
<!-- i3&#45;&gt;h1_1 -->
<g id="edge17" class="edge">
<title>i3&#45;&gt;h1_1</title>
<path fill="none" stroke="black" d="M74.87,-336.05C100.48,-414.83 155.42,-583.77 181.09,-662.72"/>
<polygon fill="black" stroke="black" points="177.8,-663.91 184.22,-672.34 184.46,-661.75 177.8,-663.91"/>
</g>
<!-- i3&#45;&gt;h1_2 -->
<g id="edge18" class="edge">
<title>i3&#45;&gt;h1_2</title>
<path fill="none" stroke="black" d="M77.99,-334.71C103.61,-396.82 152.19,-514.59 177.9,-576.92"/>
<polygon fill="black" stroke="black" points="174.77,-578.52 181.82,-586.43 181.24,-575.86 174.77,-578.52"/>
</g>
<!-- i3&#45;&gt;h1_3 -->
<g id="edge19" class="edge">
<title>i3&#45;&gt;h1_3</title>
<path fill="none" stroke="black" d="M82.67,-332.08C107.52,-376.15 148.21,-448.31 173.15,-492.54"/>
<polygon fill="black" stroke="black" points="170.11,-494.28 178.07,-501.27 176.21,-490.84 170.11,-494.28"/>
</g>
<!-- i3&#45;&gt;h1_4 -->
<g id="edge20" class="edge">
<title>i3&#45;&gt;h1_4</title>
<path fill="none" stroke="black" d="M90.19,-326.55C112.46,-351.54 143.07,-385.9 165.44,-411"/>
<polygon fill="black" stroke="black" points="162.83,-413.33 172.09,-418.47 168.05,-408.67 162.83,-413.33"/>
</g>
<!-- i3&#45;&gt;h1_5 -->
<g id="edge21" class="edge">
<title>i3&#45;&gt;h1_5</title>
<path fill="none" stroke="black" d="M100.57,-312.56C117.72,-320.65 137.79,-330.11 154.99,-338.22"/>
<polygon fill="black" stroke="black" points="153.68,-341.47 164.22,-342.57 156.67,-335.14 153.68,-341.47"/>
</g>
<!-- i3&#45;&gt;h1_6 -->
<g id="edge22" class="edge">
<title>i3&#45;&gt;h1_6</title>
<path fill="none" stroke="black" d="M103.85,-286.34C119.12,-283.6 136.33,-280.51 151.65,-277.76"/>
<polygon fill="black" stroke="black" points="152.67,-281.13 161.9,-275.92 151.43,-274.24 152.67,-281.13"/>
</g>
<!-- i3&#45;&gt;h1_7 -->
<g id="edge23" class="edge">
<title>i3&#45;&gt;h1_7</title>
<path fill="none" stroke="black" d="M94.92,-265.99C115.13,-249.21 140.73,-227.94 160.97,-211.13"/>
<polygon fill="black" stroke="black" points="163.26,-213.78 168.71,-204.7 158.79,-208.4 163.26,-213.78"/>
</g>
<!-- i3&#45;&gt;h1_8 -->
<g id="edge24" class="edge">
<title>i3&#45;&gt;h1_8</title>
<path fill="none" stroke="black" d="M85.71,-257.68C109.67,-222.18 145.98,-168.39 170.04,-132.74"/>
<polygon fill="black" stroke="black" points="173.19,-134.34 175.88,-124.09 167.38,-130.42 173.19,-134.34"/>
</g>
<!-- i1 -->
<g id="node3" class="node">
<title>i1</title>
<ellipse fill="none" stroke="black" cx="60.2" cy="-506" rx="44.39" ry="44.39"/>
<text text-anchor="middle" x="60.2" y="-502.3" font-family="Times,serif" font-size="14.00">Input 1</text>
</g>
<!-- i1&#45;&gt;h1_1 -->
<g id="edge1" class="edge">
<title>i1&#45;&gt;h1_1</title>
<path fill="none" stroke="black" d="M85.71,-542.5C109.67,-578.19 145.98,-632.24 170.04,-668.07"/>
<polygon fill="black" stroke="black" points="167.4,-670.42 175.88,-676.77 173.21,-666.52 167.4,-670.42"/>
</g>
<!-- i1&#45;&gt;h1_2 -->
<g id="edge2" class="edge">
<title>i1&#45;&gt;h1_2</title>
<path fill="none" stroke="black" d="M94.58,-533.97C114.91,-551.02 140.82,-572.73 161.21,-589.82"/>
<polygon fill="black" stroke="black" points="159.1,-592.61 169.01,-596.35 163.59,-587.25 159.1,-592.61"/>
</g>
<!-- i1&#45;&gt;h1_3 -->
<g id="edge3" class="edge">
<title>i1&#45;&gt;h1_3</title>
<path fill="none" stroke="black" d="M103.85,-513.98C119.12,-516.84 136.33,-520.06 151.65,-522.92"/>
<polygon fill="black" stroke="black" points="151.42,-526.44 161.9,-524.84 152.71,-519.56 151.42,-526.44"/>
</g>
<!-- i1&#45;&gt;h1_4 -->
<g id="edge4" class="edge">
<title>i1&#45;&gt;h1_4</title>
<path fill="none" stroke="black" d="M100.57,-487.73C117.72,-479.78 137.79,-470.47 154.99,-462.48"/>
<polygon fill="black" stroke="black" points="156.62,-465.59 164.22,-458.2 153.68,-459.24 156.62,-465.59"/>
</g>
<!-- i1&#45;&gt;h1_5 -->
<g id="edge5" class="edge">
<title>i1&#45;&gt;h1_5</title>
<path fill="none" stroke="black" d="M90.52,-473.3C112.71,-448.57 143.05,-414.74 165.29,-389.94"/>
<polygon fill="black" stroke="black" points="168.13,-392.01 172.21,-382.23 162.92,-387.34 168.13,-392.01"/>
</g>
<!-- i1&#45;&gt;h1_6 -->
<g id="edge6" class="edge">
<title>i1&#45;&gt;h1_6</title>
<path fill="none" stroke="black" d="M82.82,-467.82C107.58,-424.1 147.92,-352.85 172.84,-308.85"/>
<polygon fill="black" stroke="black" points="176.03,-310.32 177.91,-299.89 169.94,-306.87 176.03,-310.32"/>
</g>
<!-- i1&#45;&gt;h1_7 -->
<g id="edge7" class="edge">
<title>i1&#45;&gt;h1_7</title>
<path fill="none" stroke="black" d="M77.99,-465.42C103.61,-403.5 152.19,-286.09 177.9,-223.95"/>
<polygon fill="black" stroke="black" points="181.23,-225.05 181.82,-214.47 174.76,-222.37 181.23,-225.05"/>
</g>
<!-- i1&#45;&gt;h1_8 -->
<g id="edge8" class="edge">
<title>i1&#45;&gt;h1_8</title>
<path fill="none" stroke="black" d="M74.87,-464.05C100.48,-385.47 155.42,-216.93 181.09,-138.18"/>
<polygon fill="black" stroke="black" points="184.45,-139.17 184.22,-128.58 177.79,-137 184.45,-139.17"/>
</g>
<!-- h2_1 -->
<g id="node12" class="node">
<title>h2_1</title>
<ellipse fill="none" stroke="black" cx="342.73" cy="-705" rx="34.39" ry="34.39"/>
<text text-anchor="middle" x="342.73" y="-701.3" font-family="Times,serif" font-size="14.00">H2_1</text>
</g>
<!-- h1_1&#45;&gt;h2_1 -->
<g id="edge25" class="edge">
<title>h1_1&#45;&gt;h2_1</title>
<path fill="none" stroke="black" d="M230.44,-705C250.49,-705 276.17,-705 297.8,-705"/>
<polygon fill="black" stroke="black" points="298.06,-708.5 308.06,-705 298.06,-701.5 298.06,-708.5"/>
</g>
<!-- h2_2 -->
<g id="node13" class="node">
<title>h2_2</title>
<ellipse fill="none" stroke="black" cx="342.73" cy="-618" rx="34.39" ry="34.39"/>
<text text-anchor="middle" x="342.73" y="-614.3" font-family="Times,serif" font-size="14.00">H2_2</text>
</g>
<!-- h1_1&#45;&gt;h2_2 -->
<g id="edge26" class="edge">
<title>h1_1&#45;&gt;h2_2</title>
<path fill="none" stroke="black" d="M225.81,-687.6C248.32,-674.09 279.71,-655.24 304.15,-640.57"/>
<polygon fill="black" stroke="black" points="306.04,-643.51 312.81,-635.37 302.44,-637.51 306.04,-643.51"/>
</g>
<!-- h2_3 -->
<g id="node14" class="node">
<title>h2_3</title>
<ellipse fill="none" stroke="black" cx="342.73" cy="-531" rx="34.39" ry="34.39"/>
<text text-anchor="middle" x="342.73" y="-527.3" font-family="Times,serif" font-size="14.00">H2_3</text>
</g>
<!-- h1_1&#45;&gt;h2_3 -->
<g id="edge27" class="edge">
<title>h1_1&#45;&gt;h2_3</title>
<path fill="none" stroke="black" d="M218.53,-678.95C243.82,-648.58 285.69,-598.3 313.49,-564.91"/>
<polygon fill="black" stroke="black" points="316.18,-567.15 319.89,-557.23 310.8,-562.67 316.18,-567.15"/>
</g>
<!-- h2_4 -->
<g id="node15" class="node">
<title>h2_4</title>
<ellipse fill="none" stroke="black" cx="342.73" cy="-444" rx="34.39" ry="34.39"/>
<text text-anchor="middle" x="342.73" y="-440.3" font-family="Times,serif" font-size="14.00">H2_4</text>
</g>
<!-- h1_1&#45;&gt;h2_4 -->
<g id="edge28" class="edge">
<title>h1_1&#45;&gt;h2_4</title>
<path fill="none" stroke="black" d="M213.32,-675.31C239.56,-628.05 290.84,-535.67 320.04,-483.08"/>
<polygon fill="black" stroke="black" points="323.25,-484.5 325.05,-474.06 317.13,-481.1 323.25,-484.5"/>
</g>
<!-- h2_5 -->
<g id="node16" class="node">
<title>h2_5</title>
<ellipse fill="none" stroke="black" cx="342.73" cy="-357" rx="34.39" ry="34.39"/>
<text text-anchor="middle" x="342.73" y="-353.3" font-family="Times,serif" font-size="14.00">H2_5</text>
</g>
<!-- h1_1&#45;&gt;h2_5 -->
<g id="edge29" class="edge">
<title>h1_1&#45;&gt;h2_5</title>
<path fill="none" stroke="black" d="M209.95,-673.5C236.23,-610.38 295.33,-468.45 324.62,-398.11"/>
<polygon fill="black" stroke="black" points="327.93,-399.25 328.54,-388.68 321.47,-396.56 327.93,-399.25"/>
</g>
<!-- h2_6 -->
<g id="node17" class="node">
<title>h2_6</title>
<ellipse fill="none" stroke="black" cx="342.73" cy="-270" rx="34.39" ry="34.39"/>
<text text-anchor="middle" x="342.73" y="-266.3" font-family="Times,serif" font-size="14.00">H2_6</text>
</g>
<!-- h1_1&#45;&gt;h2_6 -->
<g id="edge30" class="edge">
<title>h1_1&#45;&gt;h2_6</title>
<path fill="none" stroke="black" d="M207.73,-672.3C233.62,-594.57 298.84,-398.76 327.67,-312.23"/>
<polygon fill="black" stroke="black" points="331.07,-313.08 330.91,-302.48 324.43,-310.86 331.07,-313.08"/>
</g>
<!-- h2_7 -->
<g id="node18" class="node">
<title>h2_7</title>
<ellipse fill="none" stroke="black" cx="342.73" cy="-183" rx="34.39" ry="34.39"/>
<text text-anchor="middle" x="342.73" y="-179.3" font-family="Times,serif" font-size="14.00">H2_7</text>
</g>
<!-- h1_1&#45;&gt;h2_7 -->
<g id="edge31" class="edge">
<title>h1_1&#45;&gt;h2_7</title>
<path fill="none" stroke="black" d="M206.01,-671.95C231.21,-581.16 301.49,-327.96 329.75,-226.18"/>
<polygon fill="black" stroke="black" points="333.2,-226.81 332.51,-216.24 326.46,-224.94 333.2,-226.81"/>
</g>
<!-- h2_8 -->
<g id="node19" class="node">
<title>h2_8</title>
<ellipse fill="none" stroke="black" cx="342.73" cy="-96" rx="34.39" ry="34.39"/>
<text text-anchor="middle" x="342.73" y="-92.3" font-family="Times,serif" font-size="14.00">H2_8</text>
</g>
<!-- h1_1&#45;&gt;h2_8 -->
<g id="edge32" class="edge">
<title>h1_1&#45;&gt;h2_8</title>
<path fill="none" stroke="black" d="M204.84,-671.39C229.43,-568.03 303.92,-254.93 331.4,-139.41"/>
<polygon fill="black" stroke="black" points="334.85,-140.04 333.76,-129.51 328.04,-138.42 334.85,-140.04"/>
</g>
<!-- h1_2&#45;&gt;h2_1 -->
<g id="edge33" class="edge">
<title>h1_2&#45;&gt;h2_1</title>
<path fill="none" stroke="black" d="M225.81,-635.4C248.32,-648.91 279.71,-667.76 304.15,-682.43"/>
<polygon fill="black" stroke="black" points="302.44,-685.49 312.81,-687.63 306.04,-679.49 302.44,-685.49"/>
</g>
<!-- h1_2&#45;&gt;h2_2 -->
<g id="edge34" class="edge">
<title>h1_2&#45;&gt;h2_2</title>
<path fill="none" stroke="black" d="M230.44,-618C250.49,-618 276.17,-618 297.8,-618"/>
<polygon fill="black" stroke="black" points="298.06,-621.5 308.06,-618 298.06,-614.5 298.06,-621.5"/>
</g>
<!-- h1_2&#45;&gt;h2_3 -->
<g id="edge35" class="edge">
<title>h1_2&#45;&gt;h2_3</title>
<path fill="none" stroke="black" d="M225.81,-600.6C248.32,-587.09 279.71,-568.24 304.15,-553.57"/>
<polygon fill="black" stroke="black" points="306.04,-556.51 312.81,-548.37 302.44,-550.51 306.04,-556.51"/>
</g>
<!-- h1_2&#45;&gt;h2_4 -->
<g id="edge36" class="edge">
<title>h1_2&#45;&gt;h2_4</title>
<path fill="none" stroke="black" d="M218.53,-591.95C243.82,-561.58 285.69,-511.3 313.49,-477.91"/>
<polygon fill="black" stroke="black" points="316.18,-480.15 319.89,-470.23 310.8,-475.67 316.18,-480.15"/>
</g>
<!-- h1_2&#45;&gt;h2_5 -->
<g id="edge37" class="edge">
<title>h1_2&#45;&gt;h2_5</title>
<path fill="none" stroke="black" d="M213.32,-588.31C239.56,-541.05 290.84,-448.67 320.04,-396.08"/>
<polygon fill="black" stroke="black" points="323.25,-397.5 325.05,-387.06 317.13,-394.1 323.25,-397.5"/>
</g>
<!-- h1_2&#45;&gt;h2_6 -->
<g id="edge38" class="edge">
<title>h1_2&#45;&gt;h2_6</title>
<path fill="none" stroke="black" d="M209.95,-586.5C236.23,-523.38 295.33,-381.45 324.62,-311.11"/>
<polygon fill="black" stroke="black" points="327.93,-312.25 328.54,-301.68 321.47,-309.56 327.93,-312.25"/>
</g>
<!-- h1_2&#45;&gt;h2_7 -->
<g id="edge39" class="edge">
<title>h1_2&#45;&gt;h2_7</title>
<path fill="none" stroke="black" d="M207.73,-585.3C233.62,-507.57 298.84,-311.76 327.67,-225.23"/>
<polygon fill="black" stroke="black" points="331.07,-226.08 330.91,-215.48 324.43,-223.86 331.07,-226.08"/>
</g>
<!-- h1_2&#45;&gt;h2_8 -->
<g id="edge40" class="edge">
<title>h1_2&#45;&gt;h2_8</title>
<path fill="none" stroke="black" d="M206.01,-584.95C231.21,-494.16 301.49,-240.96 329.75,-139.18"/>
<polygon fill="black" stroke="black" points="333.2,-139.81 332.51,-129.24 326.46,-137.94 333.2,-139.81"/>
</g>
<!-- h1_3&#45;&gt;h2_1 -->
<g id="edge41" class="edge">
<title>h1_3&#45;&gt;h2_1</title>
<path fill="none" stroke="black" d="M218.53,-557.05C243.82,-587.42 285.69,-637.7 313.49,-671.09"/>
<polygon fill="black" stroke="black" points="310.8,-673.33 319.89,-678.77 316.18,-668.85 310.8,-673.33"/>
</g>
<!-- h1_3&#45;&gt;h2_2 -->
<g id="edge42" class="edge">
<title>h1_3&#45;&gt;h2_2</title>
<path fill="none" stroke="black" d="M225.81,-548.4C248.32,-561.91 279.71,-580.76 304.15,-595.43"/>
<polygon fill="black" stroke="black" points="302.44,-598.49 312.81,-600.63 306.04,-592.49 302.44,-598.49"/>
</g>
<!-- h1_3&#45;&gt;h2_3 -->
<g id="edge43" class="edge">
<title>h1_3&#45;&gt;h2_3</title>
<path fill="none" stroke="black" d="M230.44,-531C250.49,-531 276.17,-531 297.8,-531"/>
<polygon fill="black" stroke="black" points="298.06,-534.5 308.06,-531 298.06,-527.5 298.06,-534.5"/>
</g>
<!-- h1_3&#45;&gt;h2_4 -->
<g id="edge44" class="edge">
<title>h1_3&#45;&gt;h2_4</title>
<path fill="none" stroke="black" d="M225.81,-513.6C248.32,-500.09 279.71,-481.24 304.15,-466.57"/>
<polygon fill="black" stroke="black" points="306.04,-469.51 312.81,-461.37 302.44,-463.51 306.04,-469.51"/>
</g>
<!-- h1_3&#45;&gt;h2_5 -->
<g id="edge45" class="edge">
<title>h1_3&#45;&gt;h2_5</title>
<path fill="none" stroke="black" d="M218.53,-504.95C243.82,-474.58 285.69,-424.3 313.49,-390.91"/>
<polygon fill="black" stroke="black" points="316.18,-393.15 319.89,-383.23 310.8,-388.67 316.18,-393.15"/>
</g>
<!-- h1_3&#45;&gt;h2_6 -->
<g id="edge46" class="edge">
<title>h1_3&#45;&gt;h2_6</title>
<path fill="none" stroke="black" d="M213.32,-501.31C239.56,-454.05 290.84,-361.67 320.04,-309.08"/>
<polygon fill="black" stroke="black" points="323.25,-310.5 325.05,-300.06 317.13,-307.1 323.25,-310.5"/>
</g>
<!-- h1_3&#45;&gt;h2_7 -->
<g id="edge47" class="edge">
<title>h1_3&#45;&gt;h2_7</title>
<path fill="none" stroke="black" d="M209.95,-499.5C236.23,-436.38 295.33,-294.45 324.62,-224.11"/>
<polygon fill="black" stroke="black" points="327.93,-225.25 328.54,-214.68 321.47,-222.56 327.93,-225.25"/>
</g>
<!-- h1_3&#45;&gt;h2_8 -->
<g id="edge48" class="edge">
<title>h1_3&#45;&gt;h2_8</title>
<path fill="none" stroke="black" d="M207.73,-498.3C233.62,-420.57 298.84,-224.76 327.67,-138.23"/>
<polygon fill="black" stroke="black" points="331.07,-139.08 330.91,-128.48 324.43,-136.86 331.07,-139.08"/>
</g>
<!-- h1_4&#45;&gt;h2_1 -->
<g id="edge49" class="edge">
<title>h1_4&#45;&gt;h2_1</title>
<path fill="none" stroke="black" d="M213.32,-473.69C239.56,-520.95 290.84,-613.33 320.04,-665.92"/>
<polygon fill="black" stroke="black" points="317.13,-667.9 325.05,-674.94 323.25,-664.5 317.13,-667.9"/>
</g>
<!-- h1_4&#45;&gt;h2_2 -->
<g id="edge50" class="edge">
<title>h1_4&#45;&gt;h2_2</title>
<path fill="none" stroke="black" d="M218.53,-470.05C243.82,-500.42 285.69,-550.7 313.49,-584.09"/>
<polygon fill="black" stroke="black" points="310.8,-586.33 319.89,-591.77 316.18,-581.85 310.8,-586.33"/>
</g>
<!-- h1_4&#45;&gt;h2_3 -->
<g id="edge51" class="edge">
<title>h1_4&#45;&gt;h2_3</title>
<path fill="none" stroke="black" d="M225.81,-461.4C248.32,-474.91 279.71,-493.76 304.15,-508.43"/>
<polygon fill="black" stroke="black" points="302.44,-511.49 312.81,-513.63 306.04,-505.49 302.44,-511.49"/>
</g>
<!-- h1_4&#45;&gt;h2_4 -->
<g id="edge52" class="edge">
<title>h1_4&#45;&gt;h2_4</title>
<path fill="none" stroke="black" d="M230.44,-444C250.49,-444 276.17,-444 297.8,-444"/>
<polygon fill="black" stroke="black" points="298.06,-447.5 308.06,-444 298.06,-440.5 298.06,-447.5"/>
</g>
<!-- h1_4&#45;&gt;h2_5 -->
<g id="edge53" class="edge">
<title>h1_4&#45;&gt;h2_5</title>
<path fill="none" stroke="black" d="M225.81,-426.6C248.32,-413.09 279.71,-394.24 304.15,-379.57"/>
<polygon fill="black" stroke="black" points="306.04,-382.51 312.81,-374.37 302.44,-376.51 306.04,-382.51"/>
</g>
<!-- h1_4&#45;&gt;h2_6 -->
<g id="edge54" class="edge">
<title>h1_4&#45;&gt;h2_6</title>
<path fill="none" stroke="black" d="M218.53,-417.95C243.82,-387.58 285.69,-337.3 313.49,-303.91"/>
<polygon fill="black" stroke="black" points="316.18,-306.15 319.89,-296.23 310.8,-301.67 316.18,-306.15"/>
</g>
<!-- h1_4&#45;&gt;h2_7 -->
<g id="edge55" class="edge">
<title>h1_4&#45;&gt;h2_7</title>
<path fill="none" stroke="black" d="M213.32,-414.31C239.56,-367.05 290.84,-274.67 320.04,-222.08"/>
<polygon fill="black" stroke="black" points="323.25,-223.5 325.05,-213.06 317.13,-220.1 323.25,-223.5"/>
</g>
<!-- h1_4&#45;&gt;h2_8 -->
<g id="edge56" class="edge">
<title>h1_4&#45;&gt;h2_8</title>
<path fill="none" stroke="black" d="M209.95,-412.5C236.23,-349.38 295.33,-207.45 324.62,-137.11"/>
<polygon fill="black" stroke="black" points="327.93,-138.25 328.54,-127.68 321.47,-135.56 327.93,-138.25"/>
</g>
<!-- h1_5&#45;&gt;h2_1 -->
<g id="edge57" class="edge">
<title>h1_5&#45;&gt;h2_1</title>
<path fill="none" stroke="black" d="M209.95,-388.5C236.23,-451.62 295.33,-593.55 324.62,-663.89"/>
<polygon fill="black" stroke="black" points="321.47,-665.44 328.54,-673.32 327.93,-662.75 321.47,-665.44"/>
</g>
<!-- h1_5&#45;&gt;h2_2 -->
<g id="edge58" class="edge">
<title>h1_5&#45;&gt;h2_2</title>
<path fill="none" stroke="black" d="M213.32,-386.69C239.56,-433.95 290.84,-526.33 320.04,-578.92"/>
<polygon fill="black" stroke="black" points="317.13,-580.9 325.05,-587.94 323.25,-577.5 317.13,-580.9"/>
</g>
<!-- h1_5&#45;&gt;h2_3 -->
<g id="edge59" class="edge">
<title>h1_5&#45;&gt;h2_3</title>
<path fill="none" stroke="black" d="M218.53,-383.05C243.82,-413.42 285.69,-463.7 313.49,-497.09"/>
<polygon fill="black" stroke="black" points="310.8,-499.33 319.89,-504.77 316.18,-494.85 310.8,-499.33"/>
</g>
<!-- h1_5&#45;&gt;h2_4 -->
<g id="edge60" class="edge">
<title>h1_5&#45;&gt;h2_4</title>
<path fill="none" stroke="black" d="M225.81,-374.4C248.32,-387.91 279.71,-406.76 304.15,-421.43"/>
<polygon fill="black" stroke="black" points="302.44,-424.49 312.81,-426.63 306.04,-418.49 302.44,-424.49"/>
</g>
<!-- h1_5&#45;&gt;h2_5 -->
<g id="edge61" class="edge">
<title>h1_5&#45;&gt;h2_5</title>
<path fill="none" stroke="black" d="M230.44,-357C250.49,-357 276.17,-357 297.8,-357"/>
<polygon fill="black" stroke="black" points="298.06,-360.5 308.06,-357 298.06,-353.5 298.06,-360.5"/>
</g>
<!-- h1_5&#45;&gt;h2_6 -->
<g id="edge62" class="edge">
<title>h1_5&#45;&gt;h2_6</title>
<path fill="none" stroke="black" d="M225.81,-339.6C248.32,-326.09 279.71,-307.24 304.15,-292.57"/>
<polygon fill="black" stroke="black" points="306.04,-295.51 312.81,-287.37 302.44,-289.51 306.04,-295.51"/>
</g>
<!-- h1_5&#45;&gt;h2_7 -->
<g id="edge63" class="edge">
<title>h1_5&#45;&gt;h2_7</title>
<path fill="none" stroke="black" d="M218.53,-330.95C243.82,-300.58 285.69,-250.3 313.49,-216.91"/>
<polygon fill="black" stroke="black" points="316.18,-219.15 319.89,-209.23 310.8,-214.67 316.18,-219.15"/>
</g>
<!-- h1_5&#45;&gt;h2_8 -->
<g id="edge64" class="edge">
<title>h1_5&#45;&gt;h2_8</title>
<path fill="none" stroke="black" d="M213.32,-327.31C239.56,-280.05 290.84,-187.67 320.04,-135.08"/>
<polygon fill="black" stroke="black" points="323.25,-136.5 325.05,-126.06 317.13,-133.1 323.25,-136.5"/>
</g>
<!-- h1_6&#45;&gt;h2_1 -->
<g id="edge65" class="edge">
<title>h1_6&#45;&gt;h2_1</title>
<path fill="none" stroke="black" d="M207.73,-302.7C233.62,-380.43 298.84,-576.24 327.67,-662.77"/>
<polygon fill="black" stroke="black" points="324.43,-664.14 330.91,-672.52 331.07,-661.92 324.43,-664.14"/>
</g>
<!-- h1_6&#45;&gt;h2_2 -->
<g id="edge66" class="edge">
<title>h1_6&#45;&gt;h2_2</title>
<path fill="none" stroke="black" d="M209.95,-301.5C236.23,-364.62 295.33,-506.55 324.62,-576.89"/>
<polygon fill="black" stroke="black" points="321.47,-578.44 328.54,-586.32 327.93,-575.75 321.47,-578.44"/>
</g>
<!-- h1_6&#45;&gt;h2_3 -->
<g id="edge67" class="edge">
<title>h1_6&#45;&gt;h2_3</title>
<path fill="none" stroke="black" d="M213.32,-299.69C239.56,-346.95 290.84,-439.33 320.04,-491.92"/>
<polygon fill="black" stroke="black" points="317.13,-493.9 325.05,-500.94 323.25,-490.5 317.13,-493.9"/>
</g>
<!-- h1_6&#45;&gt;h2_4 -->
<g id="edge68" class="edge">
<title>h1_6&#45;&gt;h2_4</title>
<path fill="none" stroke="black" d="M218.53,-296.05C243.82,-326.42 285.69,-376.7 313.49,-410.09"/>
<polygon fill="black" stroke="black" points="310.8,-412.33 319.89,-417.77 316.18,-407.85 310.8,-412.33"/>
</g>
<!-- h1_6&#45;&gt;h2_5 -->
<g id="edge69" class="edge">
<title>h1_6&#45;&gt;h2_5</title>
<path fill="none" stroke="black" d="M225.81,-287.4C248.32,-300.91 279.71,-319.76 304.15,-334.43"/>
<polygon fill="black" stroke="black" points="302.44,-337.49 312.81,-339.63 306.04,-331.49 302.44,-337.49"/>
</g>
<!-- h1_6&#45;&gt;h2_6 -->
<g id="edge70" class="edge">
<title>h1_6&#45;&gt;h2_6</title>
<path fill="none" stroke="black" d="M230.44,-270C250.49,-270 276.17,-270 297.8,-270"/>
<polygon fill="black" stroke="black" points="298.06,-273.5 308.06,-270 298.06,-266.5 298.06,-273.5"/>
</g>
<!-- h1_6&#45;&gt;h2_7 -->
<g id="edge71" class="edge">
<title>h1_6&#45;&gt;h2_7</title>
<path fill="none" stroke="black" d="M225.81,-252.6C248.32,-239.09 279.71,-220.24 304.15,-205.57"/>
<polygon fill="black" stroke="black" points="306.04,-208.51 312.81,-200.37 302.44,-202.51 306.04,-208.51"/>
</g>
<!-- h1_6&#45;&gt;h2_8 -->
<g id="edge72" class="edge">
<title>h1_6&#45;&gt;h2_8</title>
<path fill="none" stroke="black" d="M218.53,-243.95C243.82,-213.58 285.69,-163.3 313.49,-129.91"/>
<polygon fill="black" stroke="black" points="316.18,-132.15 319.89,-122.23 310.8,-127.67 316.18,-132.15"/>
</g>
<!-- h1_7&#45;&gt;h2_1 -->
<g id="edge73" class="edge">
<title>h1_7&#45;&gt;h2_1</title>
<path fill="none" stroke="black" d="M206.01,-216.05C231.21,-306.84 301.49,-560.04 329.75,-661.82"/>
<polygon fill="black" stroke="black" points="326.46,-663.06 332.51,-671.76 333.2,-661.19 326.46,-663.06"/>
</g>
<!-- h1_7&#45;&gt;h2_2 -->
<g id="edge74" class="edge">
<title>h1_7&#45;&gt;h2_2</title>
<path fill="none" stroke="black" d="M207.73,-215.7C233.62,-293.43 298.84,-489.24 327.67,-575.77"/>
<polygon fill="black" stroke="black" points="324.43,-577.14 330.91,-585.52 331.07,-574.92 324.43,-577.14"/>
</g>
<!-- h1_7&#45;&gt;h2_3 -->
<g id="edge75" class="edge">
<title>h1_7&#45;&gt;h2_3</title>
<path fill="none" stroke="black" d="M209.95,-214.5C236.23,-277.62 295.33,-419.55 324.62,-489.89"/>
<polygon fill="black" stroke="black" points="321.47,-491.44 328.54,-499.32 327.93,-488.75 321.47,-491.44"/>
</g>
<!-- h1_7&#45;&gt;h2_4 -->
<g id="edge76" class="edge">
<title>h1_7&#45;&gt;h2_4</title>
<path fill="none" stroke="black" d="M213.32,-212.69C239.56,-259.95 290.84,-352.33 320.04,-404.92"/>
<polygon fill="black" stroke="black" points="317.13,-406.9 325.05,-413.94 323.25,-403.5 317.13,-406.9"/>
</g>
<!-- h1_7&#45;&gt;h2_5 -->
<g id="edge77" class="edge">
<title>h1_7&#45;&gt;h2_5</title>
<path fill="none" stroke="black" d="M218.53,-209.05C243.82,-239.42 285.69,-289.7 313.49,-323.09"/>
<polygon fill="black" stroke="black" points="310.8,-325.33 319.89,-330.77 316.18,-320.85 310.8,-325.33"/>
</g>
<!-- h1_7&#45;&gt;h2_6 -->
<g id="edge78" class="edge">
<title>h1_7&#45;&gt;h2_6</title>
<path fill="none" stroke="black" d="M225.81,-200.4C248.32,-213.91 279.71,-232.76 304.15,-247.43"/>
<polygon fill="black" stroke="black" points="302.44,-250.49 312.81,-252.63 306.04,-244.49 302.44,-250.49"/>
</g>
<!-- h1_7&#45;&gt;h2_7 -->
<g id="edge79" class="edge">
<title>h1_7&#45;&gt;h2_7</title>
<path fill="none" stroke="black" d="M230.44,-183C250.49,-183 276.17,-183 297.8,-183"/>
<polygon fill="black" stroke="black" points="298.06,-186.5 308.06,-183 298.06,-179.5 298.06,-186.5"/>
</g>
<!-- h1_7&#45;&gt;h2_8 -->
<g id="edge80" class="edge">
<title>h1_7&#45;&gt;h2_8</title>
<path fill="none" stroke="black" d="M225.81,-165.6C248.32,-152.09 279.71,-133.24 304.15,-118.57"/>
<polygon fill="black" stroke="black" points="306.04,-121.51 312.81,-113.37 302.44,-115.51 306.04,-121.51"/>
</g>
<!-- h1_8&#45;&gt;h2_1 -->
<g id="edge81" class="edge">
<title>h1_8&#45;&gt;h2_1</title>
<path fill="none" stroke="black" d="M204.84,-129.61C229.43,-232.97 303.92,-546.07 331.4,-661.59"/>
<polygon fill="black" stroke="black" points="328.04,-662.58 333.76,-671.49 334.85,-660.96 328.04,-662.58"/>
</g>
<!-- h1_8&#45;&gt;h2_2 -->
<g id="edge82" class="edge">
<title>h1_8&#45;&gt;h2_2</title>
<path fill="none" stroke="black" d="M206.01,-129.05C231.21,-219.84 301.49,-473.04 329.75,-574.82"/>
<polygon fill="black" stroke="black" points="326.46,-576.06 332.51,-584.76 333.2,-574.19 326.46,-576.06"/>
</g>
<!-- h1_8&#45;&gt;h2_3 -->
<g id="edge83" class="edge">
<title>h1_8&#45;&gt;h2_3</title>
<path fill="none" stroke="black" d="M207.73,-128.7C233.62,-206.43 298.84,-402.24 327.67,-488.77"/>
<polygon fill="black" stroke="black" points="324.43,-490.14 330.91,-498.52 331.07,-487.92 324.43,-490.14"/>
</g>
<!-- h1_8&#45;&gt;h2_4 -->
<g id="edge84" class="edge">
<title>h1_8&#45;&gt;h2_4</title>
<path fill="none" stroke="black" d="M209.95,-127.5C236.23,-190.62 295.33,-332.55 324.62,-402.89"/>
<polygon fill="black" stroke="black" points="321.47,-404.44 328.54,-412.32 327.93,-401.75 321.47,-404.44"/>
</g>
<!-- h1_8&#45;&gt;h2_5 -->
<g id="edge85" class="edge">
<title>h1_8&#45;&gt;h2_5</title>
<path fill="none" stroke="black" d="M213.32,-125.69C239.56,-172.95 290.84,-265.33 320.04,-317.92"/>
<polygon fill="black" stroke="black" points="317.13,-319.9 325.05,-326.94 323.25,-316.5 317.13,-319.9"/>
</g>
<!-- h1_8&#45;&gt;h2_6 -->
<g id="edge86" class="edge">
<title>h1_8&#45;&gt;h2_6</title>
<path fill="none" stroke="black" d="M218.53,-122.05C243.82,-152.42 285.69,-202.7 313.49,-236.09"/>
<polygon fill="black" stroke="black" points="310.8,-238.33 319.89,-243.77 316.18,-233.85 310.8,-238.33"/>
</g>
<!-- h1_8&#45;&gt;h2_7 -->
<g id="edge87" class="edge">
<title>h1_8&#45;&gt;h2_7</title>
<path fill="none" stroke="black" d="M225.81,-113.4C248.32,-126.91 279.71,-145.76 304.15,-160.43"/>
<polygon fill="black" stroke="black" points="302.44,-163.49 312.81,-165.63 306.04,-157.49 302.44,-163.49"/>
</g>
<!-- h1_8&#45;&gt;h2_8 -->
<g id="edge88" class="edge">
<title>h1_8&#45;&gt;h2_8</title>
<path fill="none" stroke="black" d="M230.44,-96C250.49,-96 276.17,-96 297.8,-96"/>
<polygon fill="black" stroke="black" points="298.06,-99.5 308.06,-96 298.06,-92.5 298.06,-99.5"/>
</g>
<!-- o1 -->
<g id="node20" class="node">
<title>o1</title>
<ellipse fill="none" stroke="black" cx="481.23" cy="-444" rx="37.09" ry="37.09"/>
<text text-anchor="middle" x="481.23" y="-440.3" font-family="Times,serif" font-size="14.00">Alpha</text>
</g>
<!-- h2_1&#45;&gt;o1 -->
<g id="edge89" class="edge">
<title>h2_1&#45;&gt;o1</title>
<path fill="none" stroke="black" d="M359.52,-674.81C383.89,-628.22 430.7,-538.7 458.32,-485.88"/>
<polygon fill="black" stroke="black" points="461.55,-487.27 463.08,-476.78 455.35,-484.02 461.55,-487.27"/>
</g>
<!-- o2 -->
<g id="node21" class="node">
<title>o2</title>
<ellipse fill="none" stroke="black" cx="481.23" cy="-356" rx="32.49" ry="32.49"/>
<text text-anchor="middle" x="481.23" y="-352.3" font-family="Times,serif" font-size="14.00">Beta</text>
</g>
<!-- h2_1&#45;&gt;o2 -->
<g id="edge90" class="edge">
<title>h2_1&#45;&gt;o2</title>
<path fill="none" stroke="black" d="M356.21,-673.1C381.22,-609.14 437.45,-465.37 464.76,-395.55"/>
<polygon fill="black" stroke="black" points="468.03,-396.79 468.42,-386.2 461.51,-394.24 468.03,-396.79"/>
</g>
<!-- h2_2&#45;&gt;o1 -->
<g id="edge91" class="edge">
<title>h2_2&#45;&gt;o1</title>
<path fill="none" stroke="black" d="M364.76,-591.19C387.92,-561.67 425.32,-513.99 451.25,-480.94"/>
<polygon fill="black" stroke="black" points="454.16,-482.9 457.58,-472.87 448.66,-478.57 454.16,-482.9"/>
</g>
<!-- h2_2&#45;&gt;o2 -->
<g id="edge92" class="edge">
<title>h2_2&#45;&gt;o2</title>
<path fill="none" stroke="black" d="M359.52,-587.69C384.61,-539.53 433.52,-445.65 460.75,-393.39"/>
<polygon fill="black" stroke="black" points="463.89,-394.93 465.41,-384.45 457.68,-391.7 463.89,-394.93"/>
</g>
<!-- h2_3&#45;&gt;o1 -->
<g id="edge93" class="edge">
<title>h2_3&#45;&gt;o1</title>
<path fill="none" stroke="black" d="M372.35,-512.76C392.13,-500.15 418.72,-483.2 440.55,-469.29"/>
<polygon fill="black" stroke="black" points="442.72,-472.05 449.28,-463.73 438.96,-466.15 442.72,-472.05"/>
</g>
<!-- h2_3&#45;&gt;o2 -->
<g id="edge94" class="edge">
<title>h2_3&#45;&gt;o2</title>
<path fill="none" stroke="black" d="M364.76,-504.04C388.82,-473.19 428.24,-422.66 454.21,-389.36"/>
<polygon fill="black" stroke="black" points="457.11,-391.32 460.51,-381.29 451.6,-387.02 457.11,-391.32"/>
</g>
<!-- h2_4&#45;&gt;o1 -->
<g id="edge95" class="edge">
<title>h2_4&#45;&gt;o1</title>
<path fill="none" stroke="black" d="M377.47,-444C394.53,-444 415.48,-444 434,-444"/>
<polygon fill="black" stroke="black" points="434.01,-447.5 444.01,-444 434.01,-440.5 434.01,-447.5"/>
</g>
<!-- h2_4&#45;&gt;o2 -->
<g id="edge96" class="edge">
<title>h2_4&#45;&gt;o2</title>
<path fill="none" stroke="black" d="M372.01,-425.77C393.11,-412.17 422.07,-393.5 444.72,-378.89"/>
<polygon fill="black" stroke="black" points="446.87,-381.67 453.37,-373.31 443.07,-375.79 446.87,-381.67"/>
</g>
<!-- h2_5&#45;&gt;o1 -->
<g id="edge97" class="edge">
<title>h2_5&#45;&gt;o1</title>
<path fill="none" stroke="black" d="M372.35,-375.24C392.13,-387.85 418.72,-404.8 440.55,-418.71"/>
<polygon fill="black" stroke="black" points="438.96,-421.85 449.28,-424.27 442.72,-415.95 438.96,-421.85"/>
</g>
<!-- h2_5&#45;&gt;o2 -->
<g id="edge98" class="edge">
<title>h2_5&#45;&gt;o2</title>
<path fill="none" stroke="black" d="M377.47,-356.75C395.81,-356.62 418.65,-356.45 438.14,-356.31"/>
<polygon fill="black" stroke="black" points="438.31,-359.81 448.28,-356.23 438.26,-352.81 438.31,-359.81"/>
</g>
<!-- h2_6&#45;&gt;o1 -->
<g id="edge99" class="edge">
<title>h2_6&#45;&gt;o1</title>
<path fill="none" stroke="black" d="M364.76,-296.81C387.92,-326.33 425.32,-374.01 451.25,-407.06"/>
<polygon fill="black" stroke="black" points="448.66,-409.43 457.58,-415.13 454.16,-405.1 448.66,-409.43"/>
</g>
<!-- h2_6&#45;&gt;o2 -->
<g id="edge100" class="edge">
<title>h2_6&#45;&gt;o2</title>
<path fill="none" stroke="black" d="M372.35,-288.03C393.33,-301.25 421.95,-319.28 444.44,-333.46"/>
<polygon fill="black" stroke="black" points="442.72,-336.5 453.05,-338.87 446.45,-330.58 442.72,-336.5"/>
</g>
<!-- h2_7&#45;&gt;o1 -->
<g id="edge101" class="edge">
<title>h2_7&#45;&gt;o1</title>
<path fill="none" stroke="black" d="M359.52,-213.19C383.89,-259.78 430.7,-349.3 458.32,-402.12"/>
<polygon fill="black" stroke="black" points="455.35,-403.98 463.08,-411.22 461.55,-400.73 455.35,-403.98"/>
</g>
<!-- h2_7&#45;&gt;o2 -->
<g id="edge102" class="edge">
<title>h2_7&#45;&gt;o2</title>
<path fill="none" stroke="black" d="M364.76,-209.65C388.75,-240.06 428.01,-289.82 453.99,-322.74"/>
<polygon fill="black" stroke="black" points="451.34,-325.04 460.29,-330.73 456.84,-320.71 451.34,-325.04"/>
</g>
<!-- h2_8&#45;&gt;o1 -->
<g id="edge103" class="edge">
<title>h2_8&#45;&gt;o1</title>
<path fill="none" stroke="black" d="M356.21,-127.81C380.72,-190.3 435.21,-329.22 463.08,-400.28"/>
<polygon fill="black" stroke="black" points="459.92,-401.81 466.83,-409.84 466.44,-399.26 459.92,-401.81"/>
</g>
<!-- h2_8&#45;&gt;o2 -->
<g id="edge104" class="edge">
<title>h2_8&#45;&gt;o2</title>
<path fill="none" stroke="black" d="M359.52,-126.08C384.55,-173.75 433.26,-266.54 460.53,-318.48"/>
<polygon fill="black" stroke="black" points="457.45,-320.15 465.2,-327.38 463.65,-316.9 457.45,-320.15"/>
</g>
</g>
</svg>
